<svg width="63" height="64" viewBox="0 0 63 64" fill="none" xmlns="http://www.w3.org/2000/svg">
<path d="M56.9953 29.8053C57.1533 29.036 57.1227 28.2402 56.906 27.4852C56.6893 26.7302 56.293 26.0381 55.7506 25.4674C55.2081 24.8967 54.5354 24.4641 53.7893 24.2063C53.0432 23.9485 52.2456 23.8729 51.4639 23.986C51.0633 23.5194 50.5257 23.1893 49.9266 23.0421C49.3275 22.895 48.697 22.9382 48.1239 23.1657C47.4847 22.1776 46.6003 21.3697 45.556 20.8196C44.5116 20.2696 43.3424 19.996 42.1608 20.0252C42.0094 19.5972 41.7602 19.21 41.4328 18.894C41.1054 18.5779 40.7087 18.3416 40.2739 18.2035C39.8391 18.0655 39.3781 18.0296 38.927 18.0986C38.4759 18.1675 38.047 18.3395 37.674 18.601C36.0214 17.0022 33.8062 16.1077 31.5 16.1077C29.1938 16.1077 26.9787 17.0022 25.326 18.601C24.9531 18.3395 24.5242 18.1675 24.0731 18.0986C23.622 18.0296 23.1609 18.0655 22.7261 18.2035C22.2913 18.3416 21.8947 18.5779 21.5673 18.894C21.2399 19.21 20.9907 19.5972 20.8392 20.0252C19.6577 19.996 18.4885 20.2697 17.4442 20.8197C16.3999 21.3697 15.5156 22.1776 14.8764 23.1657C14.3033 22.9382 13.6728 22.895 13.0737 23.0421C12.4746 23.1893 11.937 23.5194 11.5364 23.986C10.7549 23.8737 9.95764 23.9499 9.21191 24.208C8.46618 24.4661 7.79383 24.8986 7.25152 25.4691C6.70922 26.0396 6.31286 26.7314 6.09587 27.486C5.87888 28.2407 5.84761 29.0361 6.00471 29.8053L7.87502 30.7837H56.1094L56.9953 29.8053Z" fill="#A45E14"/>
<path d="M60.0469 49.3732H2.95312V45.4596L4.92188 44.4812H59.0625L60.0469 45.4596V49.3732Z" fill="#50559F"/>
<path d="M60.0469 45.4595H2.95312L5.90625 29.8052H57.0938L60.0469 45.4595Z" fill="#5D62B5"/>
<path d="M39.7811 37.6324C40.0827 37.4302 40.3278 37.1553 40.4936 36.8334C40.6593 36.5115 40.7403 36.1531 40.729 35.7917C40.7177 35.4303 40.6144 35.0776 40.4289 34.7666C40.2433 34.4555 39.9814 34.1963 39.6678 34.0131C39.3541 33.8299 38.9989 33.7286 38.6352 33.7188C38.2715 33.709 37.9113 33.7909 37.5881 33.9569C37.2649 34.123 36.9893 34.3677 36.787 34.6682C36.5847 34.9688 36.4623 35.3154 36.4313 35.6757H26.7534C26.7221 35.3156 26.5996 34.9694 26.3973 34.6691C26.195 34.3689 25.9194 34.1245 25.5964 33.9587C25.2734 33.7929 24.9134 33.7111 24.5499 33.721C24.1865 33.7309 23.8315 33.8321 23.5181 34.0152C23.2047 34.1983 22.943 34.4573 22.7575 34.7681C22.572 35.0788 22.4687 35.4313 22.4573 35.7924C22.4458 36.1536 22.5266 36.5118 22.6921 36.8335C22.8576 37.1553 23.1023 37.4301 23.4036 37.6324C23.102 37.8347 22.8568 38.1096 22.6911 38.4315C22.5253 38.7534 22.4443 39.1118 22.4556 39.4732C22.4669 39.8346 22.5702 40.1873 22.7558 40.4983C22.9414 40.8094 23.2032 41.0686 23.5168 41.2518C23.8305 41.435 24.1858 41.5363 24.5494 41.5461C24.9131 41.5559 25.2734 41.474 25.5966 41.308C25.9198 41.1419 26.1954 40.8972 26.3977 40.5967C26.6 40.2961 26.7223 39.9495 26.7534 39.5892H36.4313C36.4625 39.9492 36.5851 40.2955 36.7874 40.5958C36.9897 40.896 37.2652 41.1404 37.5882 41.3062C37.9113 41.472 38.2713 41.5537 38.6347 41.5439C38.9981 41.534 39.3531 41.4328 39.6666 41.2497C39.98 41.0666 40.2417 40.8076 40.4272 40.4968C40.6127 40.186 40.7159 39.8336 40.7274 39.4725C40.7388 39.1113 40.658 38.7531 40.4926 38.4314C40.3271 38.1096 40.0823 37.8348 39.7811 37.6324V37.6324Z" fill="#29C3BE"/>
<path d="M23.625 23.9348C25.256 23.9348 26.5781 22.6207 26.5781 20.9996C26.5781 19.3786 25.256 18.0645 23.625 18.0645C21.994 18.0645 20.6719 19.3786 20.6719 20.9996C20.6719 22.6207 21.994 23.9348 23.625 23.9348Z" fill="#62B58F"/>
<path d="M27.5625 25.8916C29.1935 25.8916 30.5156 24.5775 30.5156 22.9564C30.5156 21.3354 29.1935 20.0212 27.5625 20.0212C25.9315 20.0212 24.6094 21.3354 24.6094 22.9564C24.6094 24.5775 25.9315 25.8916 27.5625 25.8916Z" fill="#F2726F"/>
<path d="M13.7812 28.8269C15.4122 28.8269 16.7344 27.5128 16.7344 25.8917C16.7344 24.2707 15.4122 22.9565 13.7812 22.9565C12.1503 22.9565 10.8281 24.2707 10.8281 25.8917C10.8281 27.5128 12.1503 28.8269 13.7812 28.8269Z" fill="#F2726F"/>
<path d="M49.2188 28.8269C50.8497 28.8269 52.1719 27.5128 52.1719 25.8917C52.1719 24.2707 50.8497 22.9565 49.2188 22.9565C47.5878 22.9565 46.2656 24.2707 46.2656 25.8917C46.2656 27.5128 47.5878 28.8269 49.2188 28.8269Z" fill="#62B58F"/>
<path d="M39.375 23.9348C41.006 23.9348 42.3281 22.6207 42.3281 20.9996C42.3281 19.3786 41.006 18.0645 39.375 18.0645C37.744 18.0645 36.4219 19.3786 36.4219 20.9996C36.4219 22.6207 37.744 23.9348 39.375 23.9348Z" fill="#F2726F"/>
</svg>
