<svg width="63" height="64" viewBox="0 0 63 64" fill="none" xmlns="http://www.w3.org/2000/svg">
<path d="M0 47.8923V61.6894H4.27119V59.5668C4.27119 57.2223 6.18363 55.3215 8.54237 55.3215H42.7119C45.0706 55.3215 46.983 57.2223 46.983 59.5668V61.6894H51.2542V47.8923H0Z" fill="#D9C2A0"/>
<path d="M46.9832 19.237C45.2141 19.237 43.7798 17.8114 43.7798 16.053L44.8476 13.9304H49.1188L50.1866 16.053C50.1866 17.8114 48.7522 19.237 46.9832 19.237Z" fill="#F7BA61"/>
<path d="M40.5762 16.0532L44.8474 10.7466L45.9152 9.6853H48.0507L49.1185 10.7466L53.3897 16.0532H40.5762Z" fill="#E4E4E2"/>
<path d="M58.7286 62.7509C58.1389 62.7509 57.6608 62.2757 57.6608 61.6896V6.50138C57.6608 4.74307 56.2265 3.31745 54.4574 3.31745H51.254C49.485 3.31745 48.0506 4.74307 48.0506 6.50138C48.0506 7.08749 47.5725 7.5627 46.9828 7.5627C46.3931 7.5627 45.915 7.08749 45.915 6.50138C45.9187 3.57189 48.3066 1.19845 51.254 1.19482H54.4574C57.4048 1.19845 59.7927 3.57189 59.7964 6.50138V61.6896C59.7964 62.2757 59.3183 62.7509 58.7286 62.7509Z" fill="#C3C3C3"/>
<path d="M6.40693 23.4822H44.8476C47.2064 23.4822 49.1188 25.383 49.1188 27.7274V38.3405H2.13574V27.7274C2.13574 25.383 4.04818 23.4822 6.40693 23.4822Z" fill="#D9C2A0"/>
<path d="M2.13574 36.218H49.1188V39.402H2.13574V36.218Z" fill="#C1AC8E"/>
<path d="M51.2542 48.9537H0V40.4632C0 39.291 0.95622 38.3406 2.13559 38.3406H49.1186C50.298 38.3406 51.2542 39.291 51.2542 40.4632V48.9537Z" fill="#5D62B5"/>
<path d="M10.6779 29.8501H19.2203C21.579 29.8501 23.4915 31.7509 23.4915 34.0953C23.4915 36.4398 21.579 38.3406 19.2203 38.3406H10.6779C8.31918 38.3406 6.40674 36.4398 6.40674 34.0953C6.40674 31.7509 8.31918 29.8501 10.6779 29.8501Z" fill="#50559F"/>
<path d="M32.0339 29.8501H40.5763C42.935 29.8501 44.8474 31.7509 44.8474 34.0953C44.8474 36.4398 42.935 38.3406 40.5763 38.3406H32.0339C29.6751 38.3406 27.7627 36.4398 27.7627 34.0953C27.7627 31.7509 29.6751 29.8501 32.0339 29.8501Z" fill="#50559F"/>
<path d="M44.8477 6.50122H49.1188V10.7465H44.8477V6.50122Z" fill="#DBDBDB"/>
<path d="M61.9321 62.7508H55.5253C54.9356 62.7508 54.4575 62.2756 54.4575 61.6895C54.4575 61.1034 54.9356 60.6282 55.5253 60.6282H61.9321C62.5218 60.6282 62.9999 61.1034 62.9999 61.6895C62.9999 62.2756 62.5218 62.7508 61.9321 62.7508Z" fill="#B9B9B9"/>
<path d="M19.2203 29.8501H10.6779C8.31918 29.8501 6.40674 31.7509 6.40674 34.0953H23.4915C23.4915 31.7509 21.579 29.8501 19.2203 29.8501Z" fill="#5D62B5"/>
<path d="M40.5763 29.8501H32.0339C29.6751 29.8501 27.7627 31.7509 27.7627 34.0953H44.8474C44.8474 31.7509 42.935 29.8501 40.5763 29.8501Z" fill="#5D62B5"/>
</svg>
