<svg width="63" height="64" viewBox="0 0 63 64" fill="none" xmlns="http://www.w3.org/2000/svg">
<path d="M36.75 39.9039H26.25L27.5704 38.8723C29.3523 37.4796 29.896 35.06 28.875 33.0664L28.7175 32.7014L30.352 32.2117H32.9219L34.2816 32.7023L34.125 33.0664C33.1047 35.06 33.6487 37.479 35.4305 38.8714L36.75 39.9039Z" fill="#FBB540"/>
<path d="M36.75 44.1777H26.25V39.9042L27.125 39.5837H35.875L36.75 39.9042V44.1777Z" fill="#FBB540"/>
<path d="M30.352 32.2117L28.7192 32.7023L28.8759 33.0664C29.2287 33.7607 29.4009 34.5292 29.3772 35.304C30.7811 35.6641 32.2638 35.6003 33.6297 35.1211C33.6337 34.4084 33.8033 33.7058 34.1259 33.0664L34.2834 32.7014L32.9227 32.2117H30.352Z" fill="#EA9D2D"/>
<path d="M26.25 41.6135H36.75V45.0323H26.25V41.6135Z" fill="#EA9D2D"/>
<path d="M26.25 39.5894H36.75V50.0256H26.25V39.5894Z" fill="#5D62B5"/>
<path d="M26.25 42.1982H36.75V44.8073H26.25V42.1982Z" fill="#50559F"/>
<path d="M26.25 47.4165H36.75V50.0256H26.25V47.4165Z" fill="#50559F"/>
<path d="M18.375 47.4165H44.625V57.8527H18.375V47.4165Z" fill="#5D62B5"/>
<path d="M19.7324 50.1602H21.5428V57.8524H19.7324V50.1602Z" fill="#50559F"/>
<path d="M23.3535 50.1602H25.1639V57.8524H23.3535V50.1602Z" fill="#50559F"/>
<path d="M37.8369 50.1602H39.6473V57.8524H37.8369V50.1602Z" fill="#50559F"/>
<path d="M41.4565 50.1602H43.2669V57.8524H41.4565V50.1602Z" fill="#50559F"/>
<path d="M19.7324 11.6992H44.1721V15.118H19.7324V11.6992Z" fill="#FBB540"/>
<path d="M41.4561 25.3743V21.9555H43.2664C46.7641 21.9518 49.5986 19.2753 49.6026 15.9727V15.118H42.3612V11.6992H51.413C52.4128 11.6992 53.2233 12.4645 53.2233 13.4086V15.9727C53.2169 21.1625 48.7627 25.3682 43.2664 25.3743H41.4561Z" fill="#FBB540"/>
<path d="M21.5431 25.3743V21.9555H19.7328C16.2351 21.9518 13.4005 19.2753 13.3966 15.9727V15.118H20.6379V11.6992H11.5862C10.5863 11.6992 9.77588 12.4645 9.77588 13.4086V15.9727C9.78233 21.1625 14.2365 25.3682 19.7328 25.3743H21.5431Z" fill="#FBB540"/>
<path d="M20.6387 8.28052H42.3628V22.8103C42.3628 28.4746 37.4997 33.0666 31.5007 33.0666C25.5018 33.0666 20.6387 28.4746 20.6387 22.8103V8.28052Z" fill="#FBB540"/>
<path d="M20.6387 8.28052H42.3628V13.4087H20.6387V8.28052Z" fill="#FBB540"/>
<path d="M23.625 13.4988H39.375V16.1078H23.625V13.4988Z" fill="#EA9D2D"/>
</svg>
