<svg width="63" height="64" viewBox="0 0 63 64" fill="none" xmlns="http://www.w3.org/2000/svg">
<path d="M30.5156 30.7837H32.4844V35.6757H30.5156V30.7837Z" fill="#CBCBCB"/>
<path d="M2.95312 19.043H60.0469V30.7837H2.95312V19.043Z" fill="#50559F"/>
<path d="M17.7188 19.043H60.0469V30.7837H17.7188C16.1523 30.7837 14.65 30.1652 13.5424 29.0643C12.4348 27.9634 11.8125 26.4703 11.8125 24.9134C11.8125 23.3564 12.4348 21.8633 13.5424 20.7624C14.65 19.6615 16.1523 19.043 17.7188 19.043V19.043Z" fill="#5D62B5"/>
<path d="M41.3438 23.9348H43.3125V25.8916H41.3438V23.9348Z" fill="#50559F"/>
<path d="M45.2812 23.9348H47.25V25.8916H45.2812V23.9348Z" fill="#50559F"/>
<path d="M49.2188 23.9348H51.1875V25.8916H49.2188V23.9348Z" fill="#50559F"/>
<path d="M24.6094 18.0645V31.762H38.3906V18.0645H24.6094ZM34.4531 27.8484H28.5469V21.978H34.4531V27.8484Z" fill="#E4E4E2"/>
<path d="M38.3906 39.5893C38.3906 40.9438 37.9865 42.268 37.2293 43.3942C36.4722 44.5205 35.396 45.3983 34.1369 45.9167C32.8778 46.4351 31.4924 46.5707 30.1557 46.3064C28.8191 46.0422 27.5913 45.3899 26.6276 44.4321C25.6639 43.4743 25.0077 42.2539 24.7418 40.9254C24.4759 39.5969 24.6124 38.2198 25.1339 36.9683C25.6554 35.7169 26.5386 34.6473 27.6718 33.8947C28.8049 33.1422 30.1372 32.7405 31.5 32.7405C33.3274 32.7407 35.0799 33.4624 36.3721 34.7467C37.6643 36.0311 38.3904 37.7729 38.3906 39.5893Z" fill="#F3AF3E"/>
<path d="M34.4531 21.978H35.4375V27.8484H34.4531V21.978Z" fill="#CBCBCB"/>
<path d="M23.625 19.043H24.6094V30.7837H23.625V19.043Z" fill="#50559F"/>
</svg>
