<svg width="63" height="64" viewBox="0 0 63 64" fill="none" xmlns="http://www.w3.org/2000/svg">
<path d="M27.5625 22.1889L21.6562 28.0592C21.4803 27.9724 21.3097 27.8782 21.1444 27.7767C20.1658 27.1864 19.3449 26.3703 18.7511 25.3975C18.1574 24.4248 17.8083 23.3242 17.7335 22.1889C17.7237 22.036 17.7188 21.8819 17.7188 21.7266V19.2537H23.625L27.5625 22.1889Z" fill="#F3AF3E"/>
<path d="M25.5936 25.1239L23.1327 26.5915L21.1443 27.7766C20.1657 27.1862 19.3448 26.3701 18.751 25.3974C18.1573 24.4247 17.8082 23.324 17.7334 22.1887H22.7303L25.1088 24.6274L25.5936 25.1239Z" fill="#5B3726"/>
<path d="M45.2812 19.2537V21.7266C45.2812 21.8819 45.2763 22.036 45.2665 22.1889C45.1848 23.4225 44.7797 24.6134 44.0916 25.6432C43.4034 26.6731 42.4561 27.506 41.3438 28.0592L35.4375 22.1889L39.375 19.2537H45.2812Z" fill="#F3AF3E"/>
<path d="M45.2665 22.1887C45.1968 23.2469 44.8889 24.276 44.3654 25.2C43.8419 26.124 43.1162 26.9192 42.242 27.5271L39.375 26.1023L37.4062 25.1239L37.8911 24.6274L40.2695 22.1887H45.2665Z" fill="#5B3726"/>
<path d="M42.3281 30.016V42.7352H20.6719V30.016C20.6719 27.1617 21.8127 24.4242 23.8434 22.4059C25.874 20.3876 28.6282 19.2537 31.5 19.2537C34.3718 19.2537 37.126 20.3876 39.1566 22.4059C41.1873 24.4242 42.3281 27.1617 42.3281 30.016V30.016Z" fill="#F3AF3E"/>
<path d="M44.2969 4.57764L43.3125 8.49122L54.1406 15.34V41.7567H58.0781V13.3832L45.2812 4.90381L44.2969 4.57764Z" fill="#B9B9B9"/>
<path d="M58.0781 44.6919V50.5623C58.0781 53.1571 57.041 55.6457 55.195 57.4806C53.3489 59.3154 50.8451 60.3462 48.2344 60.3462H14.7656C12.1549 60.3462 9.6511 59.3154 7.80504 57.4806C5.95898 55.6457 4.92188 53.1571 4.92188 50.5623V44.6919H58.0781Z" fill="#5D62B5"/>
<path d="M58.0781 40.7783H4.92188C3.83456 40.7783 2.95312 41.6544 2.95312 42.7351C2.95312 43.8158 3.83456 44.6919 4.92188 44.6919H58.0781C59.1654 44.6919 60.0469 43.8158 60.0469 42.7351C60.0469 41.6544 59.1654 40.7783 58.0781 40.7783Z" fill="#5D62B5"/>
<path d="M42.6712 11.654L38.2676 5.16457L41.0281 3.91222C41.7788 3.57163 42.6268 3.50678 43.4211 3.7292C44.2154 3.95162 44.9045 4.44689 45.3659 5.1269C45.8273 5.80689 46.0311 6.62751 45.941 7.44279C45.8509 8.25808 45.4727 9.01515 44.8737 9.57934L42.6712 11.654Z" fill="#CBCBCB"/>
<path d="M26.269 26.1677L29.2231 25.19L29.8453 27.0472L26.8912 28.0248L26.269 26.1677Z" fill="#D18D28"/>
<path d="M33.1577 27.0144L33.7799 25.1573L36.734 26.135L36.1118 27.9921L33.1577 27.0144Z" fill="#D18D28"/>
<path d="M37.6302 33.7228L36.7497 31.9727C35.9696 32.3578 33.3192 34.4943 32.4846 34.2465V31.9727H30.5159V34.2474C29.6812 34.4949 27.0298 32.3577 26.2497 31.9727L25.3691 33.7228C26.0449 34.0569 28.5369 36.3073 29.291 36.3403C30.045 36.3733 30.7976 36.2489 31.5003 35.975C32.203 36.2488 32.9556 36.3731 33.7096 36.34C34.4636 36.3069 36.9545 34.057 37.6302 33.7228Z" fill="#744630"/>
<path d="M23.625 39.7999C23.6256 40.1434 23.5348 40.481 23.3617 40.7783H20.6719V36.8647C21.4551 36.8647 22.2062 37.174 22.76 37.7244C23.3139 38.2749 23.625 39.0215 23.625 39.7999Z" fill="#D18D28"/>
<path d="M42.3281 36.8647V40.7783H39.6383C39.4652 40.481 39.3744 40.1434 39.375 39.7999C39.375 39.0215 39.6861 38.2749 40.24 37.7244C40.7938 37.174 41.5449 36.8647 42.3281 36.8647Z" fill="#D18D28"/>
<path d="M28.5469 17.2969H26.5781C26.5775 16.1827 26.7722 15.077 27.1535 14.0293L29.0052 14.6941C28.7015 15.5287 28.5464 16.4094 28.5469 17.2969V17.2969Z" fill="#C0F5F9"/>
<path d="M29.9013 12.9587L28.2783 11.8509C29.0624 10.7127 30.0852 9.75677 31.2764 9.04888L31.9777 8.63062L32.9906 10.3086L32.2893 10.7268C31.3405 11.2907 30.5258 12.0521 29.9013 12.9587V12.9587Z" fill="#C0F5F9"/>
<path d="M33.4688 17.2969H31.5C31.4994 16.1827 31.6941 15.077 32.0754 14.0293L33.9271 14.6941C33.6234 15.5287 33.4683 16.4094 33.4688 17.2969V17.2969Z" fill="#C0F5F9"/>
<path d="M34.8232 12.9587L33.2002 11.8509C33.9843 10.7127 35.0071 9.75677 36.1982 9.04888L36.8996 8.63062L37.9125 10.3086L37.2112 10.7268C36.2624 11.2907 35.4477 12.0521 34.8232 12.9587V12.9587Z" fill="#C0F5F9"/>
<path d="M38.3907 17.2969H36.4219C36.4212 16.1827 36.6159 15.077 36.9973 14.0293L38.849 14.6941C38.5452 15.5287 38.3901 16.4094 38.3907 17.2969V17.2969Z" fill="#C0F5F9"/>
<path d="M9.84375 36.8648C12.0184 36.8648 13.7812 35.1126 13.7812 32.9512C13.7812 30.7898 12.0184 29.0376 9.84375 29.0376C7.66913 29.0376 5.90625 30.7898 5.90625 32.9512C5.90625 35.1126 7.66913 36.8648 9.84375 36.8648Z" fill="#B3E4E8"/>
<path d="M5.90625 26.1023C7.53722 26.1023 8.85938 24.7882 8.85938 23.1671C8.85938 21.5461 7.53722 20.2319 5.90625 20.2319C4.27528 20.2319 2.95312 21.5461 2.95312 23.1671C2.95312 24.7882 4.27528 26.1023 5.90625 26.1023Z" fill="#C0F5F9"/>
<path d="M48.2344 33.9295C49.3217 33.9295 50.2031 33.0534 50.2031 31.9727C50.2031 30.892 49.3217 30.0159 48.2344 30.0159C47.1471 30.0159 46.2656 30.892 46.2656 31.9727C46.2656 33.0534 47.1471 33.9295 48.2344 33.9295Z" fill="#C0F5F9"/>
<path d="M31.5 51.1739C31.8481 51.1739 32.1819 51.0493 32.4281 50.8276C32.6742 50.6059 32.8125 50.3052 32.8125 49.9917V48.8094C32.8125 48.4959 32.6742 48.1952 32.4281 47.9735C32.1819 47.7518 31.8481 47.6272 31.5 47.6272C31.1519 47.6272 30.8181 47.7518 30.5719 47.9735C30.3258 48.1952 30.1875 48.4959 30.1875 48.8094V49.9917C30.1875 50.3052 30.3258 50.6059 30.5719 50.8276C30.8181 51.0493 31.1519 51.1739 31.5 51.1739Z" fill="#29C3BE"/>
<path d="M28.875 52.3562V51.1739C28.875 50.8604 28.7367 50.5597 28.4906 50.338C28.2444 50.1163 27.9106 49.9917 27.5625 49.9917C27.2144 49.9917 26.8806 50.1163 26.6344 50.338C26.3883 50.5597 26.25 50.8604 26.25 51.1739V52.3562C26.25 52.6697 26.3883 52.9704 26.6344 53.1921C26.8806 53.4138 27.2144 53.5384 27.5625 53.5384C27.9106 53.5384 28.2444 53.4138 28.4906 53.1921C28.7367 52.9704 28.875 52.6697 28.875 52.3562Z" fill="#29C3BE"/>
<path d="M35.4375 49.9917C35.0894 49.9917 34.7556 50.1163 34.5094 50.338C34.2633 50.5597 34.125 50.8604 34.125 51.1739V52.3562C34.125 52.6697 34.2633 52.9704 34.5094 53.1921C34.7556 53.4138 35.0894 53.5384 35.4375 53.5384C35.7856 53.5384 36.1194 53.4138 36.3656 53.1921C36.6117 52.9704 36.75 52.6697 36.75 52.3562V51.1739C36.75 50.8604 36.6117 50.5597 36.3656 50.338C36.1194 50.1163 35.7856 49.9917 35.4375 49.9917Z" fill="#29C3BE"/>
<path d="M34.125 54.7207H32.8125V53.5384C32.8125 53.2249 32.6742 52.9242 32.4281 52.7025C32.1819 52.4808 31.8481 52.3562 31.5 52.3562C31.1519 52.3562 30.8181 52.4808 30.5719 52.7025C30.3258 52.9242 30.1875 53.2249 30.1875 53.5384V54.7207H28.875C28.5269 54.7207 28.1931 54.8452 27.9469 55.0669C27.7008 55.2886 27.5625 55.5893 27.5625 55.9029C27.5625 56.2164 27.7008 56.5171 27.9469 56.7389C28.1931 56.9606 28.5269 57.0851 28.875 57.0851H34.125C34.4731 57.0851 34.8069 56.9606 35.0531 56.7389C35.2992 56.5171 35.4375 56.2164 35.4375 55.9029C35.4375 55.5893 35.2992 55.2886 35.0531 55.0669C34.8069 54.8452 34.4731 54.7207 34.125 54.7207Z" fill="#29C3BE"/>
<path d="M20.6719 41.7567H18.7031C18.181 41.7567 17.6802 41.5506 17.311 41.1836C16.9418 40.8166 16.7344 40.3189 16.7344 39.7999C16.7344 39.0215 17.0455 38.2749 17.5993 37.7244C18.1531 37.174 18.9043 36.8647 19.6875 36.8647C20.4707 36.8647 21.2219 37.174 21.7757 37.7244C22.3295 38.2749 22.6406 39.0215 22.6406 39.7999C22.6406 40.3189 22.4332 40.8166 22.064 41.1836C21.6948 41.5506 21.194 41.7567 20.6719 41.7567Z" fill="#F3AF3E"/>
<path d="M44.2969 41.7567H42.3281C41.806 41.7567 41.3052 41.5506 40.936 41.1836C40.5668 40.8166 40.3594 40.3189 40.3594 39.7999C40.3594 39.0215 40.6705 38.2749 41.2243 37.7244C41.7781 37.174 42.5293 36.8647 43.3125 36.8647C44.0957 36.8647 44.8469 37.174 45.4007 37.7244C45.9545 38.2749 46.2656 39.0215 46.2656 39.7999C46.2656 40.3189 46.0582 40.8166 45.689 41.1836C45.3198 41.5506 44.819 41.7567 44.2969 41.7567Z" fill="#F3AF3E"/>
<path d="M31.5 32.9512C30.9779 32.9512 30.4771 32.745 30.1079 32.3781C29.7387 32.0111 29.5312 31.5134 29.5312 30.9944V29.0376H33.4688V30.9944C33.4688 31.5134 33.2613 32.0111 32.8921 32.3781C32.5229 32.745 32.0221 32.9512 31.5 32.9512Z" fill="#5B3726"/>
<path d="M4.92188 44.6919H58.0781V46.6487H4.92188V44.6919Z" fill="#50559F"/>
<path d="M34.4497 6.54614L37.7139 4.35845L43.2166 12.4694L39.9524 14.6571L34.4497 6.54614Z" fill="#B9B9B9"/>
</svg>
