<svg width="63" height="64" viewBox="0 0 63 64" fill="none" xmlns="http://www.w3.org/2000/svg">
<path d="M43.5103 37.8433V47.6272L44.4946 51.5408L47.4478 52.5192L46.4634 56.4328H41.5415L39.5728 47.6272V41.7569L43.5103 37.8433Z" fill="#DBDBDB"/>
<path d="M15.75 55.4544H10.918C9.91516 55.4544 8.93216 55.1768 8.07914 54.6528C7.22611 54.1288 6.53678 53.379 6.08838 52.4874C3.52768 47.3994 2.5021 41.6838 3.13525 36.0296L3.15125 35.8865C3.42687 35.9953 3.69512 36.1164 3.95844 36.246C5.16854 36.8451 6.25461 37.6649 7.16012 38.6627C8.26572 39.8796 9.07601 41.3322 9.52877 42.9089C9.69056 43.4708 9.96802 43.9931 10.3436 44.4428C10.7191 44.8925 11.1846 45.2597 11.7104 45.5212L12.0106 45.6704L13.9794 52.5192L14.57 53.4976L15.75 55.4544Z" fill="#DBDBDB"/>
<path d="M14.57 53.4974H11.9023C10.8995 53.4974 9.91651 53.2199 9.06349 52.6958C8.21047 52.1718 7.52113 51.422 7.07273 50.5304C5.01105 46.4333 3.93763 41.9153 3.9375 37.3343C3.9375 36.9723 3.94365 36.6091 3.95842 36.2458C5.16853 36.845 6.2546 37.6647 7.1601 38.6625C8.2657 39.8794 9.07599 41.332 9.52875 42.9087C9.69054 43.4706 9.968 43.9929 10.3436 44.4426C10.7191 44.8923 11.1845 45.2595 11.7104 45.5211L12.0106 45.6703L13.9794 52.519L14.57 53.4974Z" fill="#EAEAE8"/>
<path d="M55.3228 10.448V15.34L52.3696 17.2968L49.355 17.8961L47.4478 18.2752L47.177 19.2169L46.0746 23.0522L45.8038 23.9939C45.7952 24.0233 45.7866 24.0526 45.7805 24.0832C45.7007 24.375 45.6476 24.6734 45.6217 24.9748C45.5963 25.2657 45.5955 25.5582 45.6193 25.8492C45.6316 25.9947 45.6488 26.1391 45.6734 26.2834C46.1887 29.3593 45.8056 32.5176 44.5697 35.3837L43.5103 37.8431L39.5728 41.7567V47.6271L40.439 51.5015L43.5103 52.5191L42.5259 56.4327H37.604L34.6509 45.6703L32.9578 47.3531C31.4711 48.8311 29.7543 50.0609 27.8735 50.9952L26.7759 51.5407H27.8476C28.6076 51.541 29.3363 51.8412 29.8737 52.3753C30.411 52.9094 30.7131 53.6337 30.7134 54.389V56.4327H16.6823C16.3273 56.4328 15.9757 56.3634 15.6477 56.2284C15.3197 56.0934 15.0216 55.8955 14.7705 55.6459C14.5195 55.3964 14.3204 55.1002 14.1846 54.7741C14.0487 54.4481 13.9789 54.0986 13.979 53.7457V52.5191L12.0103 45.6703L13.1903 41.3678C14.3395 37.181 16.8598 33.4943 20.3528 30.8904L27.1905 25.7929C29.5067 24.0661 31.3868 21.8273 32.6821 19.2536L34.6509 17.2968L34.9622 16.3698V16.3685L37.604 8.49122L42.5259 6.53442H47.4478L49.4165 10.448H55.3228Z" fill="#EAEAE8"/>
<path d="M45.479 12.4048C46.0227 12.4048 46.4634 11.9667 46.4634 11.4264C46.4634 10.886 46.0227 10.448 45.479 10.448C44.9353 10.448 44.4946 10.886 44.4946 11.4264C44.4946 11.9667 44.9353 12.4048 45.479 12.4048Z" fill="#8F563B"/>
<path d="M30.0088 52.5191H23.9451C23.684 52.5191 23.4336 52.416 23.249 52.2325C23.0644 52.049 22.9607 51.8002 22.9607 51.5407C22.9607 51.2812 23.0644 51.0323 23.249 50.8488C23.4336 50.6654 23.684 50.5623 23.9451 50.5623C24.6133 50.5646 25.2688 50.3807 25.8373 50.0316C26.4058 49.6825 26.8645 49.1821 27.1615 48.5871C27.5174 47.8753 27.6264 47.0665 27.4716 46.2867C27.2928 45.3856 26.9082 44.5374 26.3473 43.8075C25.7864 43.0777 25.0643 42.4856 24.2367 42.0771L23.3827 41.654C23.1491 41.538 22.9713 41.3346 22.8886 41.0883C22.8059 40.8421 22.8249 40.5733 22.9416 40.3411C23.0583 40.1088 23.263 39.9322 23.5107 39.85C23.7584 39.7677 24.0289 39.7867 24.2625 39.9026L25.1165 40.327C26.2131 40.8679 27.17 41.6521 27.9131 42.6191C28.6562 43.5861 29.1657 44.71 29.4022 45.9039C29.5651 46.7206 29.5412 47.5633 29.3323 48.3697C29.1233 49.176 28.7347 49.9254 28.1951 50.5623L26.7764 51.5407H27.8481C28.2578 51.5402 28.6628 51.6273 29.0356 51.7961C29.4084 51.9649 29.7403 52.2115 30.0088 52.5191V52.5191Z" fill="#DBDBDB"/>
<path d="M52.3696 10.448C52.3696 11.2265 52.6808 11.973 53.2346 12.5235C53.7884 13.0739 54.5395 13.3832 55.3228 13.3832V10.448H52.3696Z" fill="#8F563B"/>
<path d="M49.3555 17.896L47.4482 18.2752L47.1775 19.2169L44.1838 18.225C43.9878 18.1601 43.8173 18.0355 43.6965 17.8689C43.5757 17.7023 43.5107 17.5021 43.5107 17.2968V15.34C43.5107 15.0805 43.6145 14.8316 43.7991 14.6481C43.9837 14.4647 44.234 14.3616 44.4951 14.3616C44.7562 14.3616 45.0066 14.4647 45.1912 14.6481C45.3758 14.8316 45.4795 15.0805 45.4795 15.34V16.5911L49.1783 17.8165C49.2399 17.837 49.2993 17.8637 49.3555 17.896V17.896Z" fill="#DBDBDB"/>
<path d="M46.7883 23.9757C46.7929 24.235 46.6937 24.4855 46.5126 24.6721C46.3315 24.8588 46.0832 24.9664 45.8224 24.9712L45.6218 24.9749L45.1173 24.9847C45.0398 24.9859 44.9623 24.9871 44.886 24.9871C42.579 24.9923 40.3189 24.3406 38.3729 23.1091C36.4269 21.8776 34.8766 20.1179 33.9053 18.038L34.6509 17.2969L34.9622 16.3699C34.9827 16.3761 35.0029 16.3835 35.0225 16.3919C35.0463 16.4007 35.0693 16.4114 35.0914 16.4237C35.1082 16.4304 35.1242 16.4386 35.1394 16.4481C35.1591 16.4592 35.1776 16.4702 35.196 16.4824C35.3551 16.5878 35.48 16.737 35.5553 16.9117C36.334 18.7299 37.6343 20.28 39.294 21.3681C40.9536 22.4563 42.899 23.0344 44.8872 23.0303C44.9512 23.0303 45.0152 23.0291 45.0804 23.0279L45.7855 23.0156C45.8832 23.0129 45.9807 23.0253 46.0746 23.0523C46.277 23.1107 46.4553 23.2317 46.5836 23.3978C46.712 23.5639 46.7837 23.7663 46.7883 23.9757V23.9757Z" fill="#5D62B5"/>
<path d="M49.417 25.124C49.4168 25.5108 49.3012 25.8888 49.0849 26.2103C48.8686 26.5317 48.5613 26.7823 48.2018 26.9302C47.8423 27.0781 47.4467 27.1167 47.0651 27.0412C46.6835 26.9657 46.3329 26.7795 46.0578 26.506C45.7827 26.2326 45.5953 25.8842 45.5193 25.5049C45.4433 25.1256 45.4822 24.7324 45.631 24.375C45.7799 24.0177 46.0319 23.7122 46.3554 23.4973C46.6788 23.2823 47.0591 23.1674 47.4482 23.1672C47.9704 23.1672 48.4711 23.3734 48.8403 23.7404C49.2096 24.1073 49.417 24.6051 49.417 25.124Z" fill="#F3AF3E"/>
<path d="M48.2343 25.1241C48.2343 25.5403 48.1008 25.9456 47.8532 26.2813C47.6056 26.6169 47.2568 26.8653 46.8574 26.9904C46.458 26.8653 46.1092 26.6169 45.8616 26.2813C45.614 25.9456 45.4805 25.5403 45.4805 25.1241C45.4805 24.7079 45.614 24.3026 45.8616 23.9669C46.1092 23.6313 46.458 23.3829 46.8574 23.2578C47.2568 23.3829 47.6056 23.6313 47.8532 23.967C48.1008 24.3026 48.2343 24.7079 48.2343 25.1241V25.1241Z" fill="#EA9D2D"/>
<path d="M56.1094 56.4326C58.284 56.4326 60.0469 54.6805 60.0469 52.5191C60.0469 50.3576 58.284 48.6055 56.1094 48.6055C53.9348 48.6055 52.1719 50.3576 52.1719 52.5191C52.1719 54.6805 53.9348 56.4326 56.1094 56.4326Z" fill="#5D62B5"/>
<path d="M60.0469 52.5191C60.0469 53.557 59.632 54.5524 58.8936 55.2864C58.1552 56.0203 57.1537 56.4326 56.1094 56.4326C56.7205 55.2175 57.0387 53.8776 57.0387 52.5191C57.0387 51.1605 56.7205 49.8206 56.1094 48.6055C57.1537 48.6055 58.1552 49.0178 58.8936 49.7517C59.632 50.4857 60.0469 51.4811 60.0469 52.5191Z" fill="#29C3BE"/>
<path d="M41.5421 12.4049V15.7266C41.5414 16.7644 41.1263 17.7595 40.3881 18.4935C39.6499 19.2274 38.6488 19.6403 37.6046 19.6414C37.4964 19.6414 37.3881 19.6365 37.2798 19.6279C36.6149 19.5732 35.975 19.3509 35.4206 18.9822L34.1052 18.1114C34.0512 18.0757 34.0009 18.0347 33.9551 17.9891L34.6515 17.2969L34.9628 16.3699C34.9833 16.3761 35.0034 16.3835 35.0231 16.3919C35.0469 16.4007 35.0699 16.4113 35.092 16.4237C35.1087 16.4304 35.1248 16.4385 35.14 16.4481C35.1597 16.4591 35.1782 16.4701 35.1966 16.4824L36.512 17.3544C36.8085 17.5508 37.1531 17.6635 37.509 17.6806C37.8649 17.6977 38.2188 17.6185 38.533 17.4514C38.8472 17.2844 39.1099 17.0357 39.2931 16.732C39.4763 16.4282 39.5732 16.0807 39.5734 15.7266V12.4049C39.5734 12.1454 39.6771 11.8966 39.8617 11.7131C40.0463 11.5296 40.2967 11.4265 40.5578 11.4265C40.8188 11.4265 41.0692 11.5296 41.2538 11.7131C41.4384 11.8966 41.5421 12.1454 41.5421 12.4049V12.4049Z" fill="#C3C3C3"/>
</svg>
